<svg width="24" height="24" viewBox="0 0 24 24" fill="none" xmlns="http://www.w3.org/2000/svg">
<path d="M0 12C1.73816e-06 5.37258 5.37259 -1.73816e-06 12 0C18.6274 1.73816e-06 24 5.37258 24 12C24 18.6274 18.6274 24 12 24C5.37258 24 -1.73816e-06 18.6274 0 12Z" fill="#CFCECE"/>
<path fill-rule="evenodd" clip-rule="evenodd" d="M15.1207 5.87858C15.5191 6.27692 15.5191 6.92275 15.1207 7.32108L10.442 11.9998L15.1207 16.6786C15.5191 17.0769 15.5191 17.7227 15.1207 18.1211C14.7224 18.5194 14.0766 18.5194 13.6782 18.1211L8.27824 12.7211C8.08695 12.5298 7.97949 12.2704 7.97949 11.9998C7.97949 11.7293 8.08695 11.4699 8.27824 11.2786L13.6782 5.87858C14.0766 5.48025 14.7224 5.48025 15.1207 5.87858Z" fill="#F3F2F2"/>
</svg>
