<svg width="30" height="30" viewBox="0 0 30 30" fill="none" xmlns="http://www.w3.org/2000/svg">
<path d="M19.3114 22.5667C17.4842 23.7856 15.3594 24.4834 13.1653 24.5853C10.9712 24.6872 8.79083 24.1892 6.85853 23.1449C4.92624 22.1006 3.31508 20.5494 2.19822 18.6581C1.08136 16.7668 0.501019 14.6069 0.519598 12.4106C0.538176 10.2142 1.15497 8.06442 2.30367 6.19229C3.45236 4.32017 5.08953 2.79648 7.03921 1.785C8.9889 0.773514 11.1774 0.312488 13.3694 0.451467C15.5615 0.590447 17.6742 1.32418 19.4805 2.5738C20.7754 3.4504 21.8827 4.57619 22.7377 5.88545C23.5927 7.19471 24.1783 8.6612 24.4603 10.1993C25.0806 13.2976 24.4477 16.5154 22.7004 19.1481C22.8026 19.257 22.8915 19.3573 22.987 19.4529C24.889 21.3561 26.7923 23.2591 28.6968 25.1617C29.0715 25.5182 29.3367 25.9743 29.4612 26.4764C29.593 27.0845 29.4856 27.7201 29.1612 28.2511C28.8369 28.7822 28.3206 29.1679 27.7194 29.3284C27.3298 29.4372 26.9188 29.4442 26.5257 29.3489C26.1326 29.2535 25.7706 29.059 25.4741 28.7838C25.369 28.694 25.2744 28.5927 25.176 28.4972C23.2995 26.6207 21.4236 24.7438 19.5483 22.8667C19.4639 22.7711 19.3848 22.671 19.3114 22.5667ZM12.6232 20.5602C14.2176 20.5585 15.7756 20.0839 17.1002 19.1965C18.4248 18.3091 19.4564 17.0488 20.0646 15.5749C20.6727 14.1011 20.83 12.48 20.5166 10.9167C20.2032 9.35346 19.4331 7.91828 18.3039 6.79276C17.1746 5.66724 15.7369 4.90196 14.1726 4.59374C12.6083 4.28552 10.9877 4.44821 9.51589 5.06124C8.04408 5.67426 6.78716 6.71006 5.90416 8.0376C5.02116 9.36513 4.55177 10.9247 4.55536 12.5191C4.56143 14.6538 5.41374 16.6989 6.92541 18.2061C8.43708 19.7133 10.4847 20.5595 12.6194 20.5593L12.6232 20.5602Z" fill="white"/>
</svg>
