<svg width="24" height="24" viewBox="0 0 24 24" fill="none" xmlns="http://www.w3.org/2000/svg">
<path d="M24 12C24 5.37258 18.6274 -1.73816e-06 12 0C5.37258 1.73816e-06 -1.73816e-06 5.37258 0 12C1.73816e-06 18.6274 5.37259 24 12 24C18.6274 24 24 18.6274 24 12Z" fill="#CFCECE"/>
<path fill-rule="evenodd" clip-rule="evenodd" d="M8.87981 18.1212C9.27814 18.5195 9.92397 18.5195 10.3223 18.1212L15.7223 12.7212C15.9136 12.5299 16.0211 12.2704 16.0211 11.9999C16.0211 11.7294 15.9136 11.47 15.7223 11.2787L10.3223 5.87867C9.92397 5.48033 9.27814 5.48033 8.87981 5.87867C8.48147 6.277 8.48147 6.92283 8.87981 7.32117L13.5586 11.9999L8.87981 16.6787C8.48147 17.077 8.48147 17.7228 8.87981 18.1212Z" fill="#F3F2F2"/>
</svg>
